<?xml version="1.0" encoding="UTF-8"?>
<svg id="Layer_2" data-name="Layer 2" xmlns="http://www.w3.org/2000/svg" viewBox="0 0 224.45 92.39">
  <defs>
    <style>
      .cls-1 {
        fill: #1d1d1b;
      }
    </style>
  </defs>
  <g id="Layer_1-2" data-name="Layer 1">
    <g>
      <path class="cls-1" d="m46.07,72.65h-9.03v19.74h9.03v-19.74Zm-26.31,7.33c3.4,0,6.28.79,9.29,2.81v-8.51c-3.01-1.76-6.74-2.49-10.41-2.49-10.53,0-18.65,7.92-18.65,18.78,0,.63.12,1.21.17,1.81h9.09c-.08-.57-.16-1.13-.16-1.75,0-6.61,4.97-10.67,10.67-10.67m26.83-18.32c0-2.81-2.23-5.04-5.04-5.04s-5.1,2.23-5.1,5.04,2.23,4.97,5.1,4.97,5.04-2.16,5.04-4.97m39.39,30.74v-7.77c0-7.92-4.84-12.82-12.69-12.82-4.97,0-8.77,2.68-10.86,6.02h-.2l-.98-5.17h-7v19.74h9.03v-5.28c0-4.12,3.01-7.07,7.14-7.07s6.54,2.36,6.54,7.33v5.02h9.03Zm31.28-4.82h-16.95c.98-5.23,4.78-8.51,9.23-8.51,4.19,0,7.59,2.94,7.72,8.51m8.44,4.82c.09-.75.19-1.49.19-2.4,0-11.91-7.33-18.19-16.29-18.19-9.82,0-17.86,7.46-17.86,18.97,0,.56.1,1.07.14,1.62h33.83Zm56.14,0v-7.63c0-7.79-3.67-12.96-11.52-12.96-4.65,0-8.05,2.36-10.34,6.15-1.77-3.79-4.97-6.15-10.08-6.15-4.78,0-7.98,2.68-9.82,5.96h-.19l-.98-5.1h-7v19.74h9.03v-5.74c0-3.47,2.03-6.61,5.96-6.61s5.5,2.16,5.5,6.48v5.87h9.03v-6.13c0-3.34,2.1-6.22,5.96-6.22s5.43,2.16,5.43,6.48v5.87h9.03Zm42.6,0v-19.74h-7.59l-.92,5.89h-.06c-2.49-4.12-6.81-6.74-12.11-6.74-8.18,0-16.1,7.46-16.1,18.91,0,.59.11,1.12.15,1.68h9.09c-.08-.57-.14-1.14-.14-1.75,0-6.22,4.05-10.67,9.49-10.67s9.29,4.39,9.29,10.67c0,.61-.07,1.18-.14,1.75h9.04Z"/>
      <path class="cls-1" d="m196.25,18.84c0-6.28,4.06-10.67,9.36-10.67s9.42,4.39,9.42,10.6-4.06,10.73-9.49,10.73-9.29-4.38-9.29-10.67m-8.9,31.74h9.03v-19.3c2.29,3.86,6.94,6.48,11.71,6.48,8.44,0,16.03-7.4,16.03-18.91S216.34,0,207.9,0c-5.17,0-9.56,2.62-12.04,6.74l-.92-5.89h-7.59v49.73Zm-24.93-12.82c9.88,0,15.97-6.35,15.97-15.31V.85h-9.03v21.59c0,4.58-2.62,7.07-6.93,7.07s-6.74-2.49-6.74-7V.85h-9.03v21.66c0,8.9,5.89,15.25,15.77,15.25m-67.53-18.91c0-6.28,4.06-10.67,9.36-10.67s9.43,4.39,9.43,10.6-4.06,10.73-9.49,10.73-9.29-4.38-9.29-10.67m-8.9,31.74h9.03v-19.3c2.29,3.86,6.93,6.48,11.71,6.48,8.44,0,16.03-7.4,16.03-18.91S114.97,0,106.53,0c-5.17,0-9.55,2.62-12.04,6.74l-.92-5.89h-7.59v49.73Zm-34.09-31.74c0-6.8,4.65-10.67,9.49-10.67s9.42,3.86,9.42,10.67-4.58,10.67-9.42,10.67-9.49-3.86-9.49-10.67m9.49,18.91c10.54,0,18.52-7.92,18.52-18.91S71.92,0,61.38,0s-18.59,7.78-18.59,18.84,8.05,18.91,18.59,18.91M9.49,18.84c0-6.28,4.06-10.67,9.36-10.67s9.42,4.39,9.42,10.6-4.05,10.73-9.49,10.73-9.29-4.38-9.29-10.67M.59,50.58h9.03v-19.3c2.29,3.86,6.94,6.48,11.71,6.48,8.44,0,16.03-7.4,16.03-18.91S29.58,0,21.14,0c-5.17,0-9.55,2.62-12.04,6.74l-.92-5.89H.59v49.73Z"/>
    </g>
  </g>
</svg>