<?xml version="1.0" encoding="utf-8"?>
<!-- Generator: Adobe Illustrator 27.5.0, SVG Export Plug-In . SVG Version: 6.00 Build 0)  -->
<svg version="1.1" id="Layer_1" xmlns="http://www.w3.org/2000/svg" xmlns:xlink="http://www.w3.org/1999/xlink" x="0px" y="0px"
	 viewBox="0 0 28 28" style="enable-background:new 0 0 28 28;" xml:space="preserve">
<g>
	<path d="M14,0C6.3,0,0,6.3,0,14c0,7.7,6.3,14,14,14c7.7,0,14-6.3,14-14C28,6.3,21.7,0,14,0z M4.4,8.8c0-0.8,0.7-1.5,1.5-1.5h15.9
		c1,0,1.9,0.8,1.9,1.9v0.1c0,0.3-0.2,0.6-0.5,0.8l-8.7,5c-0.1,0.1-0.3,0.1-0.5,0.1c-0.2,0-0.3,0-0.5-0.1l-8.7-5
		C4.6,9.9,4.4,9.6,4.4,9.3V8.8z M23.7,19.2c0,0.8-0.7,1.5-1.5,1.5h0H5.9c-0.8,0-1.5-0.7-1.5-1.5v-7.1c0-0.2,0.1-0.4,0.3-0.5
		c0.2-0.1,0.4-0.1,0.6,0l8.8,5l8.8-5c0.2-0.1,0.4-0.1,0.6,0c0.2,0.1,0.3,0.3,0.3,0.5V19.2z"/>
	<path d="M13.5,17.7l-7.9-4.5v6.1c0,0.2,0.2,0.3,0.4,0.3h16.2c0.2,0,0.3-0.2,0.3-0.3v-6.1l-7.9,4.5C14.2,17.9,13.8,17.9,13.5,17.7z"
		/>
	<path d="M22.5,9.1c0-0.4-0.3-0.7-0.7-0.7H5.9c-0.2,0-0.4,0.2-0.4,0.4v0.3l0,0L14,14L22.5,9.1z"/>
</g>
</svg>
