<?xml version="1.0" encoding="UTF-8"?>
<svg id="Layer_2" data-name="Layer 2" xmlns="http://www.w3.org/2000/svg" viewBox="0 0 611.28 356.37">
  <g id="Layer_1-2" data-name="Layer 1">
    <g>
      <path d="m305.08,206.12c-91.99,0-183.98.01-275.97-.01-15.56,0-27.01-9.91-28.89-24.83-1.99-15.74,10.21-30.21,26.16-31.01,1.16-.06,2.33-.03,3.5-.03,183.81,0,367.63.01,551.44-.03,12.33,0,21.73,4.88,27.14,16.03,9,18.57-4.53,39.77-25.4,39.83-43.16.12-86.32.04-129.49.04-49.49,0-98.99,0-148.48,0Z"/>
      <path d="m341.93,0C422.07,0,502.21,0,582.35.01c12.58,0,22.74,6.77,26.98,17.76,4.13,10.71,1.29,22.91-7.2,30.68-5.68,5.21-12.47,7.43-20.12,7.39-12.16-.05-24.32-.02-36.49-.02-147.78,0-295.56,0-443.34,0-21.77,0-35.7-19.61-27.63-38.81C79.07,6.24,88.92.01,101.52.01c76.31,0,152.61,0,228.92,0,3.83,0,7.66,0,11.5,0Z"/>
      <path d="m420.3,356.36c-53.99,0-107.98.02-161.98-.02-12.41,0-22.55-7.04-26.67-18.19-4.04-10.93-.83-23.21,8.08-30.89,6.01-5.17,13.1-6.78,20.87-6.77,76.99.06,153.98.04,230.97.05,30.16,0,60.32-.06,90.49.02,20.43.05,34.02,18.48,27.56,37.15-4.04,11.67-14.41,18.65-27.84,18.65-53.83.01-107.65,0-161.48,0Z"/>
    </g>
  </g>
</svg>