<svg id="Layer_2" data-name="Layer 2" xmlns="http://www.w3.org/2000/svg" viewBox="0 0 269.97 232.91">
  <g id="Layer_1-2" data-name="Layer 1">
    <path d="m14.44,53.73c0-7.34,0-14.45,0-21.56,0-7.28,1.91-9.29,9.18-9.09,8.78.24,17.54.74,26.87,1.15,0-5.18-.01-10.14,0-15.09.03-9.68,2.62-11.13,11.51-6.87,28.45,13.64,52.63,32.49,71.44,57.98.58.79,1.28,1.49,2.09,2.42,3.71-3.04,7.28-6.01,10.9-8.92,25.18-20.2,54.49-28.67,86.2-30.25,4.99-.25,9.99-.42,14.99-.43,5.66,0,7.78,2.14,7.85,7.89.09,7.45.02,14.91.02,23.06,3.16,0,5.76,0,8.37,0,4.13,0,6.12,2.11,6.09,6.2,0,.83.02,1.67.02,2.5,0,48.31,0,96.63-.01,144.94,0,7.97-.91,8.86-8.91,8.86-26.66,0-53.33.09-79.99-.04-10.49-.05-20.03,2.39-26.95,10.62-6.52,7.76-31.93,7.77-38.55-.25-6.45-7.83-15.58-10.36-25.54-10.34-27.16.04-54.33.01-81.49,0-7.53,0-8.53-1.04-8.53-8.73C0,159.81,0,111.83,0,63.85c0-9.16.49-9.67,9.48-9.83,1.46-.03,2.93-.16,4.96-.28Zm123.72,165.45c3.99-2.72,6.84-4.7,9.74-6.63,15.86-10.56,32.88-18.76,51.95-20.59,14-1.35,28.21-.63,42.33-.6,5.63,0,6.83-.63,6.84-5.85.03-50.12,0-100.24.05-150.37,0-4.04-1.72-5.88-5.71-5.67-5.32.28-10.65.5-15.96.88-32.44,2.3-61.24,13.34-85.49,35.47-2.72,2.48-3.82,4.88-3.81,8.55.12,45.96.08,91.92.07,137.88,0,1.93,0,3.86,0,6.93Zm-6.5-5.41c.02-.28.12-1.05.12-1.83,0-46.64.05-93.29-.1-139.93,0-2.24-1.28-4.77-2.66-6.67-17.28-23.75-39.23-42.01-65.5-55.12-5.53-2.76-6.59-2.13-6.59,4.28-.01,45.98.05,91.96-.08,137.93-.01,4.12,1.59,6.02,5.08,8.03,13.1,7.55,26.64,14.62,38.6,23.74,11.27,8.59,20.74,19.54,31.12,29.57Zm-15.48-6.25c-.23-.27-1.2-1.52-2.26-2.69-15.88-17.41-35.28-29.85-56.58-39.41-5.25-2.36-6.98-5.57-6.95-11.14.18-38.81.1-77.62.1-116.43,0-2.11,0-4.21,0-6.84-7.56-.52-14.5-1.1-21.46-1.46-7.34-.37-8.1.43-8.1,7.68,0,48.47,0,96.94,0,145.41,0,8.86.54,9.3,9.47,8.44,17.7-1.7,35.42-1.74,52.52,3.49,11.63,3.56,22.75,8.79,33.26,12.94Z" style="stroke-width: 0px;"/>
  </g>
</svg>