<?xml version="1.0" standalone="no"?>
<!DOCTYPE svg PUBLIC "-//W3C//DTD SVG 20010904//EN"
 "http://www.w3.org/TR/2001/REC-SVG-20010904/DTD/svg10.dtd">
<svg version="1.0" xmlns="http://www.w3.org/2000/svg"
 width="1169.000000pt" height="1169.000000pt" viewBox="0 0 1169.000000 1169.000000"
 preserveAspectRatio="xMidYMid meet">
<metadata>
Created by potrace 1.14, written by Peter Selinger 2001-2017
</metadata>
<g transform="translate(0.000000,1169.000000) scale(0.100000,-0.100000)"
fill="#000000" stroke="none">
<path d="M5650 11683 c-1312 -55 -2527 -523 -3520 -1355 -1103 -925 -1821
-2216 -2024 -3638 -45 -312 -51 -415 -51 -830 0 -413 8 -541 56 -860 209
-1395 932 -2683 2013 -3588 371 -310 713 -534 1146 -751 1009 -503 2126 -701
3250 -576 825 93 1638 368 2346 796 961 580 1751 1443 2235 2444 691 1428 772
3086 223 4563 -430 1155 -1200 2129 -2228 2820 -691 464 -1473 770 -2317 907
-354 57 -783 83 -1129 68z m2621 -3279 c186 -32 319 -96 438 -209 95 -91 159
-196 205 -335 50 -152 67 -267 73 -492 l6 -198 -737 0 -737 0 7 -67 c10 -113
42 -241 75 -309 42 -84 127 -164 206 -194 194 -73 445 -40 572 75 57 51 102
147 108 229 l6 66 248 0 249 0 0 -47 c-2 -191 -94 -404 -228 -524 -260 -233
-757 -305 -1167 -168 -298 99 -480 324 -556 685 -43 209 -43 549 0 757 89 427
328 661 745 731 116 20 371 20 487 0z m2022 1 c14 -6 17 -21 17 -96 l0 -89
-103 0 c-176 0 -276 -39 -377 -147 -67 -71 -120 -171 -152 -288 -22 -78 -23
-94 -28 -825 l-5 -745 -97 -3 -98 -3 0 1081 0 1080 74 0 74 0 6 -127 c9 -172
16 -243 26 -243 5 0 16 24 26 53 43 133 128 249 222 304 86 51 146 63 277 59
66 -1 128 -7 138 -11z m-6533 -152 l0 -128 -455 -672 c-250 -369 -455 -674
-455 -677 0 -3 214 -6 475 -6 l475 0 -2 -277 -3 -278 -1057 -3 -1058 -2 0 136
0 136 448 661 c246 363 449 664 450 669 2 4 -188 8 -422 8 l-426 0 0 280 0
280 1015 0 1015 0 0 -127z m707 -478 c90 -324 191 -701 224 -837 36 -148 65
-248 72 -248 7 0 29 80 55 203 33 153 273 1133 353 1440 l10 37 197 -2 197 -3
137 -540 c142 -558 227 -910 256 -1052 9 -46 21 -83 27 -83 6 0 21 44 33 98
12 53 113 431 225 839 l202 743 173 0 c94 0 172 -3 172 -7 0 -5 -146 -489
-323 -1078 l-322 -1070 -186 -3 -187 -2 -151 607 c-134 544 -178 730 -237
1011 -11 53 -22 82 -31 82 -7 0 -13 -10 -13 -22 0 -55 -69 -350 -230 -991
l-173 -687 -185 2 -186 3 -317 1050 c-175 578 -321 1062 -324 1078 l-7 27 188
-2 187 -3 164 -590z m-1555 -1809 c205 -40 364 -149 448 -309 14 -26 30 -47
37 -47 6 0 28 22 47 49 115 156 299 266 512 307 119 22 317 15 424 -16 216
-62 359 -199 430 -413 55 -163 55 -170 55 -1002 l0 -770 -410 0 -410 0 -5 715
-5 715 -31 55 c-46 82 -103 114 -210 118 -66 3 -91 0 -129 -17 -72 -32 -119
-74 -156 -143 l-34 -63 -5 -690 -5 -690 -407 -3 -408 -2 0 652 c0 385 -5 682
-10 723 -15 97 -52 161 -121 203 -52 32 -57 33 -144 30 -76 -3 -98 -8 -136
-30 -58 -34 -115 -97 -143 -157 -21 -45 -21 -55 -24 -733 l-3 -688 -409 0
-410 0 0 1085 0 1085 334 0 334 0 5 -22 c3 -13 15 -85 28 -160 15 -93 26 -138
35 -138 7 0 29 22 48 49 52 71 146 154 225 201 75 43 217 95 302 109 85 14
270 12 351 -3z m5841 -11 l57 -16 0 -258 0 -258 -147 -6 c-82 -4 -175 -14
-208 -22 -119 -31 -214 -109 -268 -218 -60 -123 -60 -126 -64 -799 l-4 -618
-285 0 -284 0 0 1080 0 1080 238 0 238 0 18 -142 c9 -79 20 -153 23 -165 8
-34 30 -28 43 12 18 54 102 175 157 227 124 115 310 155 486 103z m-2248 -14
c125 -33 250 -99 335 -178 201 -186 290 -450 290 -860 l0 -113 -825 0 -825 0
0 -44 c0 -80 21 -250 41 -336 86 -369 370 -552 794 -510 255 25 439 137 528
320 39 81 67 174 67 227 l0 33 100 0 c99 0 100 0 96 -22 -3 -13 -8 -48 -11
-78 -9 -77 -56 -214 -101 -290 -21 -36 -72 -99 -114 -141 -132 -132 -314 -207
-563 -230 -89 -9 -147 -9 -232 0 -443 45 -692 284 -787 755 -20 98 -23 142
-23 366 0 206 4 274 19 355 41 225 117 391 234 516 121 129 244 196 443 238
131 29 414 24 534 -8z m3596 14 c321 -56 516 -231 559 -501 6 -37 8 -86 4
-110 l-6 -44 -143 0 -142 0 -6 67 c-10 105 -34 160 -97 224 -96 97 -198 129
-415 129 -329 0 -497 -107 -499 -316 -1 -99 28 -153 112 -211 64 -43 142 -71
662 -233 436 -136 581 -281 582 -580 2 -321 -185 -540 -537 -630 -251 -64
-627 -40 -839 54 -83 37 -180 109 -228 169 -84 106 -132 254 -126 391 l3 71
145 0 145 0 6 -90 c7 -96 19 -139 55 -196 75 -121 254 -182 529 -182 210 1
341 42 445 139 67 63 94 128 94 229 0 140 -56 224 -196 293 -35 17 -206 74
-380 126 -174 53 -341 105 -370 117 -159 62 -297 167 -351 267 -54 100 -71
255 -42 381 53 223 256 381 560 435 108 19 370 20 476 1z"/>
<path d="M7876 8004 c-125 -30 -218 -101 -272 -206 -23 -46 -56 -156 -69 -230
l-6 -38 466 0 465 0 0 63 c0 161 -85 324 -199 382 -25 12 -70 28 -99 34 -71
15 -214 13 -286 -5z"/>
<path d="M6031 5780 c-335 -71 -506 -301 -546 -737 l-6 -73 721 0 721 0 -6 88
c-19 261 -81 428 -205 552 -71 72 -167 128 -265 155 -70 19 -345 29 -414 15z"/>
</g>
</svg>
