<?xml version="1.0" encoding="UTF-8"?>
<svg id="Layer_2" data-name="Layer 2" xmlns="http://www.w3.org/2000/svg" viewBox="0 0 303 303.04">
  <g id="Layer_1-2" data-name="Layer 1">
    <path d="m303,152.27c-1.47,85.15-69.77,152.1-153.8,150.74C64.99,301.66-1.57,232.65.03,148.36,1.6,65.48,70.77-1.4,153.12.02c82.8,1.43,149.61,67.7,149.88,152.25Zm-101.82-20.39h-36.66c0-10.46-.15-19.95.05-29.44.12-5.77,2.95-10.55,8.15-12.84,4.29-1.89,9.16-2.84,13.86-3.35,5.05-.56,10.22-.13,15.96-.13,0-9.73-.15-18.85.07-27.96.09-3.61-1.3-4.46-4.65-4.52-8.66-.16-17.32-.55-25.97-1.11-23.57-1.53-40.82,10.48-46.75,33.31-1.57,6.05-1.99,12.48-2.25,18.76-.37,8.93-.09,17.88-.09,27.42h-34.46v38.92h34.73v94.68h41.39v-94.87h30.45c2.07-13.06,4.04-25.53,6.16-38.89Z"/>
  </g>
</svg>