<?xml version="1.0" encoding="UTF-8"?>
<svg id="Layer_2" data-name="Layer 2" xmlns="http://www.w3.org/2000/svg" viewBox="0 0 302.94 302.97">
  <g id="Layer_1-2" data-name="Layer 1">
    <g>
      <path d="m302.94,151.49c0,83.75-67.63,151.42-151.39,151.47C68,303.02.05,235.13,0,151.53-.05,68.04,67.91.08,151.52,0c83.57-.08,151.42,67.8,151.41,151.49Zm-151.72,96.72c15,0,30,.23,44.99-.05,29.34-.55,51.85-22.9,52.19-52.23.35-29.65.33-59.32.01-88.97-.31-29.41-23.5-52.03-52.83-52.08-29.49-.05-58.98-.07-88.48,0-29.2.07-52.34,23.27-52.38,52.44-.04,28.66-.01,57.32-.01,85.98,0,32.55,22.34,54.86,55.01,54.92,13.83.02,27.66,0,41.49,0Z"/>
      <path d="m71.65,150.95c0-13.83-.06-27.67.01-41.5.12-22.45,15.28-37.55,37.8-37.61,28-.07,56-.06,84,0,22.84.05,37.84,15.12,37.86,37.97.02,28,.04,56,0,84-.04,22.14-15.24,37.29-37.47,37.33-28.17.05-56.33.06-84.5,0-22.46-.05-37.59-15.2-37.7-37.69-.07-14.17-.01-28.33-.01-42.5Zm79.95,53.32c29.05.01,53-23.7,53.14-52.61.14-28.57-24.13-52.85-52.93-52.95-28.97-.1-52.78,23.67-52.84,52.74-.06,29.23,23.44,52.81,52.64,52.82Zm51.84-93.27c6.04,0,11.2-4.97,11.36-10.94.16-6.09-5.16-11.46-11.35-11.45-6.4.01-11.42,5.12-11.26,11.42.16,6.17,5.08,10.97,11.24,10.96Z"/>
      <path d="m186.14,151.65c-.07,19.17-15.65,34.77-34.67,34.71-19.05-.06-34.57-15.71-34.55-34.84.03-18.96,15.97-34.68,34.93-34.45,18.91.23,34.36,15.81,34.28,34.58Z"/>
    </g>
  </g>
</svg>