<?xml version="1.0" encoding="UTF-8"?>
<svg id="Layer_2" data-name="Layer 2" xmlns="http://www.w3.org/2000/svg" viewBox="0 0 302.98 302.97">
  <g id="Layer_1-2" data-name="Layer 1">
    <path d="m302.98,151.74c-.03,83.39-67.72,151.11-151.16,151.23C68.3,303.09.15,235.18,0,151.68-.15,68,68.04-.11,151.88,0c83.66.11,151.13,67.87,151.1,151.74Zm-181.19,84.15c9.58,0,18.88-.27,28.15.11,4.74.19,5.81-1.44,5.76-5.92-.23-18.33-.18-36.66-.06-54.99.09-13.77,10.45-24.16,23.94-24.28,12.85-.12,21.92,9.51,22.33,23.73.05,1.67.02,3.33.02,5,0,17.16-.03,34.33.04,51.49,0,1.92-1.03,4.79,2.55,4.81,10.29.06,20.57.02,31.02.02.21-1.5.46-2.45.46-3.4,0-25,.17-49.99-.19-74.98-.07-5.01-1.51-10.26-3.43-14.94-12.1-29.64-57.47-28.48-72.54-11.18-1.05,1.2-1.88,2.58-2.82,3.88-.5-.27-1-.53-1.5-.8v-13.21h-33.72v114.66Zm-20.54-.28v-114.28h-33.52v114.28h33.52Zm3.72-152.25c-.11-11.69-9.44-20.72-21.23-20.52-11.2.19-19.95,9.28-19.93,20.71.02,11.68,8.97,20.85,20.36,20.85,11.62,0,20.9-9.38,20.79-21.04Z"/>
  </g>
</svg>